PathFileType  4	(X/Y/Z) C:\Users\antoi\Documents\MyRepositories\mobilecap\ResultsAnalysis
DataRate	CameraRate	NumFrames	NumMarkers	Units	OrigDataRate	OrigDataStartFrame	OrigNumFrames
100.0	100.0	4	51	mm	100.0	806	1288
Frame#	Time	r_knee			r_shank_antsup			r_ankle			r_calc			r_5meta			r_toe			L_knee			L_shank_antsup			L_ankle			L_calc			L_5meta			L_toe			r_sh2			r_sh3			r_sh4			L_sh2			L_sh3			r_thigh1			r_thigh2			r_thigh3			r_thigh4			r_thigh5			L_thigh1			L_thigh2			L_thigh3			L_thigh4			r.ASIS			r.PSIS			L.ASIS			L.PSIS			C7			R_Shoulder			L_Shoulder			R_Sternum			L_Sternum			R_humerus			R_elbow_med			R_elbow_lat			R_forearm			R_wrist_radius			R_wrist_ulna			L_humerus			L_elbow_med			L_elbow_lat			L_forearm			L_wrist_radius			L_wrist_ulna			R_HJC			L_HJC			R_HJC_reg			L_HJC_reg			
		X1	Y1	Z1	X2	Y2	Z2	X3	Y3	Z3	X4	Y4	Z4	X5	Y5	Z5	X6	Y6	Z6	X7	Y7	Z7	X8	Y8	Z8	X9	Y9	Z9	X10	Y10	Z10	X11	Y11	Z11	X12	Y12	Z12	X13	Y13	Z13	X14	Y14	Z14	X15	Y15	Z15	X16	Y16	Z16	X17	Y17	Z17	X18	Y18	Z18	X19	Y19	Z19	X20	Y20	Z20	X21	Y21	Z21	X22	Y22	Z22	X23	Y23	Z23	X24	Y24	Z24	X25	Y25	Z25	X26	Y26	Z26	X27	Y27	Z27	X28	Y28	Z28	X29	Y29	Z29	X30	Y30	Z30	X31	Y31	Z31	X32	Y32	Z32	X33	Y33	Z33	X34	Y34	Z34	X35	Y35	Z35	X36	Y36	Z36	X37	Y37	Z37	X38	Y38	Z38	X39	Y39	Z39	X40	Y40	Z40	X41	Y41	Z41	X42	Y42	Z42	X43	Y43	Z43	X44	Y44	Z44	X45	Y45	Z45	X46	Y46	Z46	X47	Y47	Z47	X48	Y48	Z48	X49	Y49	Z49	X50	Y50	Z50	X51	Y51	Z51	

806	8.05000000	-265.51941	471.66140	-418.89538	-260.58368	402.66780	-388.21540	-277.05637	94.13929	-395.64022	-338.30752	54.81477	-438.39948	-175.98138	47.48610	-353.88134	-128.17398	70.28397	-403.68041	-260.74059	465.58843	-763.38161	-235.11030	404.45328	-775.94579	-272.44462	94.69400	-788.33045	-339.38318	56.59331	-741.05003	-180.61917	43.64809	-821.65685	-129.14670	68.63110	-769.86761	-263.06398	290.19001	-373.51411	-331.62783	400.07617	-410.73788	-340.72544	284.54920	-400.39606	-324.04948	413.71860	-786.73719	-321.54645	292.43086	-801.90839	-197.72897	771.26357	-445.69913	-194.89738	661.61251	-424.10831	-246.97834	641.11341	-387.00445	-301.10366	776.25997	-396.21576	-301.21176	658.98053	-395.01077	-200.71367	745.32449	-770.60861	-197.33296	607.47645	-771.45116	-316.73444	744.86542	-787.59587	-304.82149	604.10270	-783.16940	-198.36731	917.63588	-468.37924	-375.95377	948.84788	-549.49292	-187.70865	907.00684	-724.77489	-375.85278	940.92937	-656.99260	-332.07921	1397.17019	-595.34318	-260.38823	1356.03745	-441.98192	-263.21807	1359.82061	-764.40336	-200.35053	1335.32558	-579.61408	-201.66642	1334.72938	-625.16111	-278.72807	1128.10891	-348.98703	-305.33929	1017.18256	-401.64697	-300.78386	1048.74006	-326.85440	-184.15705	1059.98294	-338.39016	-75.84386	1069.66698	-365.38144	-69.77060	1025.33303	-360.02762	-236.41920	1231.48849	-820.70483	-287.38134	1014.66572	-779.04339	-294.86971	1026.87873	-849.65268	-179.95248	1038.91879	-858.83005	-63.31677	1045.34709	-837.06523	-57.30717	1007.44338	-838.29637	-269.28007	847.34941	-496.02163	-258.55202	841.33649	-695.93607	-264.45309	844.32476	-499.32936	-264.29496	831.87175	-668.38383	
807	8.06000000	-265.21494	471.74021	-418.78807	-260.23021	402.61661	-388.11667	-277.11582	94.12787	-395.63083	-338.35246	54.76372	-438.37222	-175.99839	47.53191	-353.88771	-128.20889	70.40106	-403.71422	-259.94651	465.56279	-763.40495	-234.36684	404.24494	-775.94695	-272.38070	94.68192	-788.37110	-339.39407	56.58964	-741.05869	-180.61311	43.63575	-821.62731	-129.15013	68.64419	-769.90437	-262.91670	290.19925	-373.50748	-331.19945	400.09766	-410.69348	-340.59361	284.58822	-400.46272	-323.11774	413.79035	-786.88814	-320.99770	292.36189	-801.92219	-198.71984	771.42372	-445.19011	-195.17033	661.67917	-424.10346	-247.38369	641.06601	-386.98886	-301.77588	776.16223	-396.18784	-301.49101	658.92323	-394.96210	-201.15760	745.64995	-770.51289	-197.14784	607.71356	-771.39601	-317.12999	744.59325	-787.55106	-304.60963	603.90505	-783.30101	-199.30813	917.81541	-468.01846	-376.89823	948.84747	-549.35198	-188.60715	907.10252	-724.78179	-376.80769	941.02090	-656.75877	-331.36068	1397.44633	-595.60930	-259.85718	1356.05074	-442.00356	-262.44090	1359.73921	-764.45990	-199.83361	1335.17343	-579.57694	-201.27483	1334.55199	-625.11906	-278.72174	1128.09362	-348.97076	-305.34035	1017.18859	-401.68311	-300.90375	1048.83077	-326.91884	-184.28380	1060.22205	-338.28931	-76.02523	1070.16823	-365.20891	-69.91675	1025.88810	-359.80943	-235.52194	1231.37697	-820.55764	-286.30515	1014.60782	-779.24807	-293.60354	1026.77332	-849.94603	-178.89616	1039.26018	-859.16744	-62.19084	1046.11883	-837.62579	-56.07281	1008.35121	-839.06862	-270.17273	847.46100	-495.83010	-259.44322	841.43003	-695.74372	-265.29869	844.20055	-499.06235	-265.15666	831.86272	-668.37172	
808	8.07000000	-264.95008	471.68524	-418.85061	-259.77719	402.62445	-388.14145	-277.13123	94.17046	-395.63650	-338.37459	54.68472	-438.30751	-176.01426	47.55405	-353.88566	-128.24084	70.48128	-403.73878	-259.06862	465.53728	-763.50749	-233.51100	404.01162	-776.01777	-272.30417	94.64568	-788.35711	-339.40147	56.59877	-741.06528	-180.60501	43.64174	-821.62394	-129.14942	68.58573	-769.87203	-262.60993	290.21407	-373.44403	-330.61489	400.16831	-410.62036	-340.22436	284.68393	-400.44332	-322.12573	413.92717	-787.09106	-320.05211	292.58556	-802.33634	-199.75663	771.58311	-444.67166	-195.56536	661.81454	-424.01198	-247.68790	641.04222	-386.95264	-302.43086	775.96988	-396.09501	-301.78638	658.80484	-394.84018	-201.56546	745.95384	-770.41661	-196.92806	607.96785	-771.26119	-317.62414	744.34617	-787.52507	-304.38845	603.68625	-783.40662	-200.43179	917.98037	-467.61133	-377.85862	948.78509	-549.23538	-189.74094	906.98603	-724.23598	-377.89792	940.88102	-656.92714	-330.57408	1397.65906	-595.83727	-259.38868	1356.07305	-441.96848	-261.61290	1359.66502	-764.52620	-199.27778	1335.00615	-579.41207	-200.78909	1334.34917	-624.98611	-278.68552	1128.09813	-348.95590	-305.37049	1017.20836	-401.74810	-300.98893	1048.91978	-326.95395	-184.41404	1060.41799	-338.22545	-76.17861	1070.68530	-365.07353	-69.87894	1026.14039	-359.96427	-234.63589	1231.21315	-820.37135	-284.94462	1014.36226	-779.40852	-292.33602	1026.59446	-850.19915	-177.70323	1039.68874	-859.61046	-61.01492	1046.91471	-838.20533	-54.73303	1009.30457	-839.79448	-271.32224	847.56162	-495.48568	-260.37875	841.28169	-695.37993	-266.23997	844.26744	-498.50763	-266.29996	831.84942	-667.72652	
809	8.08000000	-264.56295	471.54620	-418.90521	-259.14576	402.65083	-388.19003	-277.09615	94.20358	-395.63115	-338.37087	54.65571	-438.26557	-176.03737	47.56062	-353.90019	-128.26338	70.50837	-403.74612	-258.11358	465.53520	-763.86576	-232.54696	403.82033	-776.23882	-272.22025	94.60795	-788.29085	-339.39361	56.61247	-741.05070	-180.59305	43.75455	-821.78032	-129.09850	68.48664	-769.80167	-262.23642	290.17136	-373.31140	-330.06595	400.37802	-410.62109	-339.73095	284.84653	-400.35681	-321.21638	413.97570	-787.14561	-319.23505	292.82039	-802.65077	-200.49973	771.69932	-444.62628	-195.92927	662.00324	-423.94243	-247.85753	641.04000	-386.92076	-303.16262	775.67416	-395.99858	-302.11765	658.52844	-394.81009	-202.01338	746.13751	-770.32940	-196.74459	608.19807	-771.19163	-318.19811	744.09238	-787.44533	-304.16256	603.44412	-783.54683	-201.68740	917.81826	-467.56641	-378.88658	948.74901	-549.13684	-190.90584	906.81578	-723.75521	-379.04581	940.59447	-657.36863	-329.74473	1397.83932	-595.94452	-258.90547	1356.17954	-441.80170	-260.76860	1359.58119	-764.47650	-198.68951	1334.88328	-579.30202	-200.15810	1334.07949	-624.76445	-278.59570	1128.14272	-348.94478	-305.43934	1017.24661	-401.83039	-301.04902	1048.97422	-326.97022	-184.55301	1060.66201	-338.12275	-76.29082	1071.18091	-364.87418	-69.74214	1026.34740	-360.13895	-233.69863	1231.06572	-820.29938	-283.40674	1014.10148	-779.50971	-291.04409	1026.38725	-850.47983	-176.36960	1040.11742	-860.08848	-59.73079	1047.71846	-838.68628	-53.29523	1010.27833	-840.53969	-272.60875	847.45088	-495.37850	-261.43279	841.06108	-695.25683	-267.43578	844.53720	-498.19550	-267.68277	831.81293	-667.10612	
